<svg width="217" height="54" viewBox="0 0 217 54" fill="none" xmlns="http://www.w3.org/2000/svg">
<path d="M47.2838 15.192V21.432H50.4518V15.192H47.2838ZM55.3478 15.192V21.432H58.5398V15.192H55.3478ZM42.8678 20.976V23.568H62.9798V20.976H42.8678ZM52.8998 4.992C48.0998 4.992 44.5958 7.344 44.5958 10.968C44.5958 14.592 48.0998 16.92 52.8998 16.92C57.6758 16.92 61.2038 14.592 61.2038 10.968C61.2038 7.344 57.6758 4.992 52.8998 4.992ZM52.8998 7.488C55.9958 7.488 58.0598 8.76 58.0598 10.968C58.0598 13.152 55.9958 14.448 52.8998 14.448C49.8038 14.448 47.7398 13.152 47.7398 10.968C47.7398 8.76 49.8038 7.488 52.8998 7.488ZM80.2339 6V20.736H90.8659V6H80.2339ZM87.7219 8.496V18.216H83.3779V8.496H87.7219ZM93.7699 3.912V26.136H96.9859V3.912H93.7699ZM96.2659 12.288V14.928H100.202V12.288H96.2659ZM124.68 6.048V6.432C124.68 12.672 123.096 16.92 116.184 20.4L117.888 22.824C126.168 18.624 127.8 12.912 127.8 6.048H124.68ZM117.552 6.048V8.568H126.576V6.048H117.552ZM124.752 11.496L116.4 11.976L116.784 14.712L124.752 13.944V11.496ZM130.488 3.888V26.112H133.704V3.888H130.488ZM132.864 12.384V15H136.776V12.384H132.864ZM161.758 11.376V13.968H165.43V11.376H161.758ZM157.006 5.832V9.576C157.006 13.344 155.854 17.304 152.59 19.32L154.51 21.72C158.062 19.536 159.454 14.616 159.454 9.576V5.832H157.006ZM157.702 5.832V9.432C157.702 14.232 158.806 19.032 162.334 21.216L164.062 18.72C161.038 16.752 160.102 13.056 160.102 9.432V5.832H157.702ZM169.054 3.912V26.136H172.102V3.912H169.054ZM164.542 4.248V25.128H167.518V4.248H164.542Z" fill="black"/>
<path d="M46.2409 36.229V39.609H47.9569V36.229H46.2409ZM50.6089 36.229V39.609H52.3379V36.229H50.6089ZM43.8489 39.362V40.766H54.7429V39.362H43.8489ZM49.2829 30.704C46.6829 30.704 44.7849 31.978 44.7849 33.941C44.7849 35.904 46.6829 37.165 49.2829 37.165C51.8699 37.165 53.7809 35.904 53.7809 33.941C53.7809 31.978 51.8699 30.704 49.2829 30.704ZM49.2829 32.056C50.9599 32.056 52.0779 32.745 52.0779 33.941C52.0779 35.124 50.9599 35.826 49.2829 35.826C47.6059 35.826 46.4879 35.124 46.4879 33.941C46.4879 32.745 47.6059 32.056 49.2829 32.056ZM60.0459 31.276V31.575C60.0459 32.511 58.8889 33.564 56.2499 33.798L56.8479 35.15C59.9549 34.864 61.5799 33.382 61.5799 31.575V31.276H60.0459ZM60.8909 31.276V31.575C60.8909 33.382 62.5289 34.864 65.6229 35.15L66.2209 33.798C63.5689 33.564 62.4249 32.511 62.4249 31.575V31.276H60.8909ZM56.7829 30.587V31.952H65.7009V30.587H56.7829ZM57.0559 37.828V42.027H65.3759V37.828H57.0559ZM63.6859 39.193V40.662H58.7589V39.193H63.6859ZM55.7949 35.579V36.944H66.6759V35.579H55.7949ZM75.9227 36.892V39.635H77.6517V36.892H75.9227ZM76.7937 30.73C74.2197 30.73 72.2957 32.043 72.2957 34.045C72.2957 36.073 74.2197 37.373 76.7937 37.373C79.3677 37.373 81.2917 36.073 81.2917 34.045C81.2917 32.043 79.3677 30.73 76.7937 30.73ZM76.7937 32.095C78.4447 32.095 79.5887 32.823 79.5887 34.045C79.5887 35.293 78.4447 36.008 76.7937 36.008C75.1427 36.008 73.9987 35.293 73.9987 34.045C73.9987 32.823 75.1427 32.095 76.7937 32.095ZM71.3597 39.362V40.766H82.2537V39.362H71.3597ZM83.6696 31.25V39.232H89.4286V31.25H83.6696ZM87.7256 32.602V37.867H85.3726V32.602H87.7256ZM91.0016 30.119V42.157H92.7436V30.119H91.0016ZM92.3536 34.656V36.086H94.4856V34.656H92.3536ZM99.8146 31.276V31.484C99.8146 34.864 98.9566 37.165 95.2126 39.05L96.1356 40.363C100.621 38.088 101.505 34.994 101.505 31.276H99.8146ZM95.9536 31.276V32.641H100.842V31.276H95.9536ZM99.8536 34.227L95.3296 34.487L95.5376 35.969L99.8536 35.553V34.227ZM102.961 30.106V42.144H104.703V30.106H102.961ZM104.248 34.708V36.125H106.367V34.708H104.248ZM111.969 34.162V35.566H113.958V34.162H111.969ZM109.395 31.159V33.187C109.395 35.228 108.771 37.373 107.003 38.465L108.043 39.765C109.967 38.582 110.721 35.917 110.721 33.187V31.159H109.395ZM109.772 31.159V33.109C109.772 35.709 110.37 38.309 112.281 39.492L113.217 38.14C111.579 37.074 111.072 35.072 111.072 33.109V31.159H109.772ZM115.921 30.119V42.157H117.572V30.119H115.921ZM113.477 30.301V41.611H115.089V30.301H113.477ZM123.057 30.912C121.172 30.912 119.729 32.147 119.729 33.876C119.729 35.618 121.172 36.853 123.057 36.853C124.955 36.853 126.372 35.618 126.372 33.876C126.372 32.147 124.955 30.912 123.057 30.912ZM123.057 32.394C123.98 32.394 124.682 32.94 124.682 33.876C124.682 34.825 123.98 35.371 123.057 35.371C122.134 35.371 121.432 34.825 121.432 33.876C121.432 32.94 122.134 32.394 123.057 32.394ZM127.503 30.106V42.183H129.232V30.106H127.503ZM119.443 39.739C121.523 39.739 124.357 39.713 126.97 39.193L126.84 37.945C124.305 38.322 121.354 38.348 119.235 38.348L119.443 39.739ZM134.747 39.362V40.766H145.641V39.362H134.747ZM139.31 36.697V39.687H141.039V36.697H139.31ZM135.878 31.003V36.918H144.445V31.003H135.878ZM142.755 32.381V35.553H137.581V32.381H142.755ZM146.706 36.06V37.438H157.6V36.06H146.706ZM148.019 33.707V35.098H156.404V33.707H148.019ZM148.019 30.561V34.214H149.748V31.926H156.3V30.561H148.019ZM147.993 40.558V41.949H156.482V40.558H147.993ZM147.993 38.348V40.909H149.709V38.348H147.993ZM170.591 30.119V38.101H172.32V30.119H170.591ZM168.524 33.304V34.695H170.838V33.304H168.524ZM166.626 31.029V31.783C166.626 33.811 165.404 35.358 162.388 36.255L163.116 37.607C166.743 36.463 168.446 34.318 168.446 31.029H166.626ZM163.012 31.029V32.407H167.9V31.029H163.012ZM167.406 37.217V37.62C167.406 38.985 166.197 40.376 163.649 40.766L164.312 42.131C167.25 41.624 168.875 39.83 168.875 37.62V37.217H167.406ZM167.653 37.217V37.62C167.653 39.83 169.252 41.624 172.19 42.118L172.879 40.753C170.318 40.363 169.122 38.972 169.122 37.62V37.217H167.653Z" fill="#F88F8F"/>
</svg>
